<?xml version="1.0" encoding="utf-8"?>
<!-- Generator: Adobe Illustrator 26.0.3, SVG Export Plug-In . SVG Version: 6.00 Build 0)  -->
<svg version="1.1" id="Ebene_1" xmlns="http://www.w3.org/2000/svg" xmlns:xlink="http://www.w3.org/1999/xlink" x="0px" y="0px"
	 viewBox="0 0 300 220" style="enable-background:new 0 0 300 220;" xml:space="preserve">
<style type="text/css">
	.st0{fill:#fff;}
	.st1{clip-path:url(#SVGID_00000038377619747241283720000011868573751447176620_);fill:#000;}
</style>
<rect class="st0" width="300" height="220"/>
<g>
	<defs>
		<rect id="SVGID_1_" x="39.8" width="220" height="220"/>
	</defs>
	<clipPath id="SVGID_00000066488935000032862380000003171131470727093934_">
		<use xlink:href="#SVGID_1_"  style="overflow:visible;"/>
	</clipPath>
	<path style="clip-path:url(#SVGID_00000066488935000032862380000003171131470727093934_);fill:#000;" d="M149.7,90.1
		c-11,0-19.9,8.9-19.9,19.9c0,11,8.9,19.9,19.9,19.9c11,0,19.9-8.9,19.9-19.9C169.6,99,160.7,90.1,149.7,90.1 M125.9,134.2l-5.4,5.4
		c-7.6-7.5-12.4-18-12.4-29.5c0-11.5,4.7-22,12.3-29.5l5.4,5.4c-6.2,6.2-10.1,14.7-10.1,24.1C115.8,119.4,119.7,128,125.9,134.2
		 M112.3,147.8l-5.4,5.4c-11.1-11-18-26.3-18-43.2c0-16.9,6.9-32.1,18-43.2l5.4,5.4c-9.7,9.7-15.8,23-15.8,37.8
		C96.5,124.8,102.5,138.2,112.3,147.8 M99.3,160.7l-5.4,5.4c-14.4-14.3-23.4-34.2-23.4-56.1c0-21.9,8.9-41.8,23.4-56.1l5.4,5.4
		c-13.1,13-21.2,30.9-21.2,50.7C78.2,129.8,86.3,147.8,99.3,160.7 M191.3,110c0,11.4-4.6,21.7-12,29.2l-5.4-5.4
		c6.1-6.1,9.8-14.5,9.8-23.8c0-9.3-3.7-17.7-9.8-23.8l5.4-5.4C186.7,88.3,191.3,98.6,191.3,110 M205.9,165.8l-5.4-5.4
		c12.9-12.9,20.8-30.8,20.8-50.4c0-19.6-8-37.5-20.8-50.4l5.4-5.4c14.2,14.3,23,34,23,55.8C228.9,131.7,220.1,151.5,205.9,165.8
		 M210.6,110c0,16.7-6.8,31.8-17.7,42.8l-5.4-5.4c9.5-9.6,15.5-22.9,15.5-37.5c0-14.6-5.9-27.8-15.5-37.5l5.4-5.4
		C203.9,78.2,210.6,93.3,210.6,110"/>
</g>
</svg>
