<svg xmlns="http://www.w3.org/2000/svg" width="34.033" height="25" viewBox="0 0 34.033 25">
    <g data-name="live feed icon">
        <path data-name="Path 472" d="M2.511 12.507A17.59 17.59 0 0 1 5.987 2.021a1.258 1.258 0 1 0-2.02-1.5 20.092 20.092 0 0 0 0 23.971 1.259 1.259 0 0 0 2.02-1.5 17.582 17.582 0 0 1-3.476-10.485m5.6 0a11.993 11.993 0 0 1 2.122-6.822A1.256 1.256 0 0 0 9.2 3.7a1.26 1.26 0 0 0-1.028.556 14.535 14.535 0 0 0 0 16.5 1.262 1.262 0 0 0 .81.537 1.257 1.257 0 0 0 1.255-1.967 11.987 11.987 0 0 1-2.122-6.82m17.751-8.251a1.259 1.259 0 0 0-1.028-.555A1.256 1.256 0 0 0 23.8 5.684a12.024 12.024 0 0 1 0 13.643 1.256 1.256 0 1 0 2.066 1.43 14.535 14.535 0 0 0 0-16.5m-8.85 2.864a5.387 5.387 0 1 0 5.384 5.386 5.4 5.4 0 0 0-5.388-5.387m13.05-6.6a1.258 1.258 0 1 0-2.02 1.5 17.55 17.55 0 0 1 0 20.968 1.259 1.259 0 0 0 2.02 1.5 20.092 20.092 0 0 0 0-23.971" transform="translate(0 .001)" style="fill:currentColor"/>
    </g>
</svg>
