<svg width="25" height="25" viewBox="0 0 25 25" fill="none" xmlns="http://www.w3.org/2000/svg">
<path d="M12.4995 0C5.59356 0 -0.000488281 5.59405 -0.000488281 12.5C-0.000488281 19.4059 5.59356 25 12.4995 25C19.4055 25 24.9995 19.4059 24.9995 12.5C24.9995 5.59405 19.4055 0 12.4995 0ZM17.0656 8.47555C18.2361 8.44656 18.8348 9.87346 18.0076 10.7018L11.9578 16.7516C11.5866 17.1228 10.959 17.1228 10.5877 16.7516L7.53444 13.6415C6.27922 12.4141 8.1342 10.5591 9.36043 11.8155L11.0727 13.5278C11.1864 13.6415 11.4149 13.6415 11.5298 13.5278L16.2095 8.84809C16.409 8.61844 16.7234 8.47555 17.0656 8.47555Z" fill="#B9C64E"/>
</svg>
