<svg data-name="slider nav" xmlns="http://www.w3.org/2000/svg" width="40" height="40" viewBox="0 0 40 40">
    <path d="M32.991 31.24a.9.9 0 0 1 .653-.24.67.67 0 0 1 .085 0 .91.91 0 0 1 .483 1.577L30.491 36h11.035a.67.67 0 0 1 .085 0 .91.91 0 0 1 .568 1.582.913.913 0 0 1-.654.236H30.491l3.722 3.409a.908.908 0 0 1 .062 1.285.908.908 0 0 1-1.284.064l-5.44-5a.909.909 0 0 1 0-1.35z" transform="translate(-14.864 -16.907)" fill="currentColor"/>
    <path data-name="Path 470" d="M20 0A20 20 0 1 1 0 20 20.014 20.014 0 0 1 20 0m0 38.182A18.182 18.182 0 1 0 1.818 20 18.169 18.169 0 0 0 20 38.182" fill="currentColor"/>
</svg>
