<svg width="25" height="25" viewBox="0 0 25 25" fill="none" xmlns="http://www.w3.org/2000/svg">
<path d="M12.5 0C5.59568 0 0 5.59688 0 12.5C0 19.4043 5.59568 25 12.5 25C19.4031 25 25 19.4043 25 12.5C25 5.59688 19.4031 0 12.5 0ZM18.0993 16.496C18.5081 16.9036 18.5081 17.566 18.0993 17.9748L17.9748 18.1005C17.566 18.5081 16.9035 18.5081 16.4948 18.1005L12.5 14.1045L8.50404 18.1005C8.09645 18.5081 7.43398 18.5081 7.02521 18.1005L6.89953 17.9748C6.49193 17.566 6.49193 16.9036 6.89953 16.496L10.8955 12.5L6.89953 8.50403C6.49193 8.09526 6.49193 7.43279 6.89953 7.02403L7.02521 6.89952C7.43398 6.49075 8.09645 6.49075 8.50404 6.89952L12.5 10.8955L16.496 6.89952C16.9048 6.49075 17.5672 6.49075 17.976 6.89952L18.1005 7.02403C18.5093 7.43279 18.5093 8.09526 18.1005 8.50403L14.1045 12.5L18.0993 16.496Z" fill="#AC4343"/>
</svg>
