<svg xmlns="http://www.w3.org/2000/svg" xmlns:xlink="http://www.w3.org/1999/xlink" version="1.1" width="256" height="256" viewBox="0 0 256 256" xml:space="preserve" style="height: 24px; width: 24px;">
    <g style="stroke: none; stroke-width: 0; stroke-dasharray: none; stroke-linecap: butt; stroke-linejoin: miter; stroke-miterlimit: 10; fill: none; fill-rule: nonzero; opacity: 1;" transform="translate(1.4065934065934016 1.4065934065934016) scale(2.81 2.81)" >
        <path d="M 58.47 76.439 c 0 0.029 0.004 0.057 0.004 0.087 C 58.475 83.967 52.442 90 45 90 s -13.475 -6.033 -13.475 -13.475 c 0 -0.029 0.004 -0.057 0.004 -0.087 C 40.51 69.714 49.49 69.714 58.47 76.439 z" style="stroke: none; stroke-width: 1; stroke-dasharray: none; stroke-linecap: butt; stroke-linejoin: miter; stroke-miterlimit: 10; fill: currentColor; fill-rule: nonzero; opacity: 1;" transform=" matrix(1 0 0 1 0 0) " stroke-linecap="round" />
        <path d="M 75.513 56.082 V 30.513 C 75.513 13.661 61.852 0 45 0 h 0 C 28.148 0 14.487 13.661 14.487 30.513 v 25.569 c 0 3.238 -1.418 6.314 -3.88 8.417 l 0 0 c -2.462 2.103 -3.88 5.179 -3.88 8.417 v 0 c 0 1.945 1.577 3.522 3.522 3.522 h 69.503 c 1.945 0 3.522 -1.577 3.522 -3.522 v 0 c 0 -3.238 -1.418 -6.314 -3.88 -8.417 l 0 0 C 76.931 62.396 75.513 59.32 75.513 56.082 z" style="stroke: none; stroke-width: 1; stroke-dasharray: none; stroke-linecap: butt; stroke-linejoin: miter; stroke-miterlimit: 10; fill: currentColor; fill-rule: nonzero; opacity: 1;" transform=" matrix(1 0 0 1 0 0) " stroke-linecap="round" />
    </g>
</svg>
