<svg xmlns="http://www.w3.org/2000/svg" width="46" height="47" viewBox="0 0 46 47">
    <g data-name="Ellipse 8" fill="#ffffff" stroke="currentColor">
        <ellipse cx="23" cy="23.5" rx="23" ry="23.5" style="stroke:none"/>
        <ellipse cx="23" cy="23.5" rx="22.5" ry="23" style="fill:none"/>
    </g>
    <g data-name="user access icon / locked">
        <path data-name="Path 499" d="M20.3 16.814a9.485 9.485 0 0 0 2.843-.519v-.157a6.846 6.846 0 0 1 .5-2.6 6.947 6.947 0 0 1 1.393-2.172 6.408 6.408 0 0 1 3.578-1.932c.045-.336.078-.678.089-1.031a8.614 8.614 0 0 0-2.452-5.955 8.456 8.456 0 0 0-11.91 0A8.614 8.614 0 0 0 11.9 8.407a8.615 8.615 0 0 0 2.452 5.955 8.619 8.619 0 0 0 5.948 2.452" transform="translate(2.827 7.5)" fill="currentColor"/>
        <path data-name="Path 500" d="M16.709 44.718a1.621 1.621 0 0 1-.582-1.266v-8.205a1.763 1.763 0 0 1 .522-1.257H9.341A9.368 9.368 0 0 0 0 43.331a1.818 1.818 0 0 0 .525 1.343 1.747 1.747 0 0 0 1.284.525h15.826l-.04-.014a2.625 2.625 0 0 1-.885-.468" transform="translate(8.185 -7.807)" fill="currentColor"/>
        <path data-name="Path 501" d="M45.536 27.99a.722.722 0 0 0-.515-.2h-.948v-3.108a5.842 5.842 0 0 0-1.591-4.016 5.306 5.306 0 0 0-1.774-1.243 5.467 5.467 0 0 0-4.337 0 5.3 5.3 0 0 0-1.771 1.243 5.828 5.828 0 0 0-1.174 1.834A5.745 5.745 0 0 0 33 24.682v3.109h-.938a.72.72 0 0 0-.515.2.655.655 0 0 0-.209.494v8.205a.524.524 0 0 0 .189.423 1.6 1.6 0 0 0 .535.27 19.075 19.075 0 0 0 6.473 1.162 18.133 18.133 0 0 0 2.334-.153 17.541 17.541 0 0 0 2.044-.372q.862-.219 1.381-.383a7.659 7.659 0 0 0 .724-.254 2.56 2.56 0 0 0 .555-.3.474.474 0 0 0 .169-.4v-8.199a.657.657 0 0 0-.209-.494m-5.087 6.28a.509.509 0 0 1-.711.727l-1.194-1.169L37.349 35a.509.509 0 0 1-.712-.727l1.178-1.153-1.178-1.153a.509.509 0 0 1 .712-.728l1.194 1.169 1.194-1.169a.509.509 0 0 1 .711.728L39.27 33.12zm.994-6.479h-5.8v-3.109a3.16 3.16 0 0 1 .866-2.252 2.763 2.763 0 0 1 4.058 0 3.16 3.16 0 0 1 .877 2.252z" transform="translate(-5.93 -1.045)" fill="currentColor"/>
    </g>
</svg>
