<svg xmlns="http://www.w3.org/2000/svg" width="46" height="47" viewBox="0 0 46 47">
    <g data-name="Ellipse 9" fill="#ffffff" stroke="currentColor">
        <ellipse cx="23" cy="23.5" rx="23" ry="23.5" style="stroke:none"/>
        <ellipse cx="23" cy="23.5" rx="22.5" ry="23" style="fill:none"/>
    </g>
    <g data-name="user access icon / unlocked">
        <path data-name="Path 77" d="M14.946 16.814a9.5 9.5 0 0 0 2.843-.519v-.158a6.85 6.85 0 0 1 .5-2.6 6.953 6.953 0 0 1 1.393-2.172 6.4 6.4 0 0 1 3.578-1.931c.044-.336.077-.678.089-1.032a8.621 8.621 0 0 0-2.449-5.95 8.457 8.457 0 0 0-11.91 0 8.616 8.616 0 0 0-2.451 5.955 8.616 8.616 0 0 0 2.452 5.955 8.619 8.619 0 0 0 5.955 2.452m1.764 12.6a1.621 1.621 0 0 1-.582-1.266V19.94a1.76 1.76 0 0 1 .522-1.257H9.341A9.368 9.368 0 0 0 0 28.023a1.818 1.818 0 0 0 .525 1.343 1.745 1.745 0 0 0 1.285.525h15.826l-.041-.013a2.637 2.637 0 0 1-.885-.468m14.711-9.966a.717.717 0 0 0-.514-.2h-.948v-3.107a5.831 5.831 0 0 0-1.59-4.016 5.3 5.3 0 0 0-1.774-1.244 5.466 5.466 0 0 0-4.337 0 5.315 5.315 0 0 0-1.769 1.244 5.83 5.83 0 0 0-1.177 1.835 5.733 5.733 0 0 0-.423 2.181v.8h2.64v-.8a3.157 3.157 0 0 1 .866-2.252 2.764 2.764 0 0 1 4.057 0 3.16 3.16 0 0 1 .877 2.252v3.109h-9.378a.718.718 0 0 0-.515.2.656.656 0 0 0-.209.495v8.205a.524.524 0 0 0 .189.423 1.606 1.606 0 0 0 .535.27A19.061 19.061 0 0 0 24.423 30a18.128 18.128 0 0 0 2.334-.153 17.418 17.418 0 0 0 2.044-.372q.862-.219 1.381-.382a7.5 7.5 0 0 0 .724-.255 2.543 2.543 0 0 0 .556-.3.474.474 0 0 0 .168-.4V19.94a.654.654 0 0 0-.209-.495m-4.343 3.613L24 26.072a.457.457 0 0 1-.361.146.49.49 0 0 1-.361-.146l-1.5-1.468a.508.508 0 0 1 0-.713.517.517 0 0 1 .738 0l1.125 1.1 2.723-2.663a.518.518 0 0 1 .721 0 .508.508 0 0 1 0 .73" transform="translate(7 8.5)"  fill="currentColor" stroke="transparent"/>
    </g>
</svg>
