<svg xmlns="http://www.w3.org/2000/svg" width="30" height="30" viewBox="0 0 30 30" fill="none">
  <path d="M28.2041 0.0107422C29.2128 0.113005 30 0.964349 30 2V7H28.5V2C28.5 1.72386 28.2761 1.5 28 1.5H2C1.72386 1.5 1.5 1.72386 1.5 2V28C1.5 28.2761 1.72386 28.5 2 28.5H28C28.2761 28.5 28.5 28.2761 28.5 28V24H30V28L29.9893 28.2041C29.8938 29.1457 29.1457 29.8938 28.2041 29.9893L28 30H2L1.7959 29.9893C0.854346 29.8938 0.1062 29.1457 0.0107422 28.2041L0 28V2C0 0.964349 0.787223 0.113005 1.7959 0.0107422L2 0H28L28.2041 0.0107422Z" fill="currentColor"/>
  <path d="M30 15.7486C29.9931 15.5694 29.9187 15.3618 29.7963 15.2316L23.507 7.74493C23.2348 7.5011 22.7138 7.40024 22.4103 7.68225C22.1106 7.96036 22.1204 8.49991 22.4181 8.77899L27.5167 14.9967H7.69736C7.28218 14.9967 6.94531 15.3336 6.94531 15.7488C6.94531 16.1639 7.28218 16.5008 7.69736 16.5008H27.5167L22.4181 23.4718C22.1615 23.7293 22.1136 24.2875 22.4103 24.5685C22.706 24.8496 23.2465 24.7595 23.507 24.5059L29.7963 16.2659C29.9334 16.12 30 15.9484 30 15.7486Z" fill="currentColor"/>
</svg>