<svg width="30" height="30" viewBox="0 0 30 30" fill="none" xmlns="http://www.w3.org/2000/svg">
<rect x="0.75" y="0.75" width="28.5" height="28.5" rx="1.25" stroke="currentColor" stroke-width="1.5"/>
<path d="M15.2042 18.9232C14.6375 18.9232 14.1781 18.4649 14.1781 17.8982C14.3115 16.5951 14.9771 15.4044 16.0177 14.6086C16.6542 13.9721 17.2552 13.3711 17.2552 12.7701C17.2552 11.6367 16.3375 10.719 15.2042 10.719C14.0708 10.719 13.1531 11.6367 13.1531 12.7701C13.1531 13.3367 12.6937 13.7951 12.1271 13.7951C11.5604 13.7951 11.1021 13.3367 11.1021 12.7701C11.1021 11.3044 11.8833 9.94926 13.1531 9.21699C14.4218 8.48366 15.9864 8.48366 17.2552 9.21699C18.525 9.94929 19.3063 11.3045 19.3063 12.7701C19.174 14.0732 18.5083 15.2628 17.4677 16.0586C16.8313 16.6961 16.2302 17.2971 16.2302 17.8982C16.2302 18.17 16.1219 18.4305 15.9292 18.6232C15.7375 18.8159 15.4761 18.9232 15.2042 18.9232Z" fill="currentColor"/>
<path d="M16.3328 20.9752C16.3328 22.4797 14.0756 22.4797 14.0756 20.9752C14.0756 19.4707 16.3328 19.4707 16.3328 20.9752Z" fill="currentColor"/>
</svg>