<svg xmlns="http://www.w3.org/2000/svg" width="25" height="30" viewBox="0 0 25 30" fill="none">
  <path d="M6.84874 4.28571C5.44181 4.28571 4.28577 5.44175 4.28577 6.84868V27.4325C4.28577 28.8394 5.44181 30 6.84874 30H21.9099C23.3169 30 24.4729 28.8394 24.4729 27.4325V6.84868C24.4729 5.44175 23.3169 4.28571 21.9099 4.28571H6.84874ZM6.84874 5.89265H21.9099C22.4535 5.89265 22.866 6.30399 22.866 6.84868V27.4325C22.866 27.9761 22.4546 28.3931 21.9099 28.3931L6.84874 28.3942C6.30518 28.3942 5.89271 27.9772 5.89271 27.4336V6.84865C5.89271 6.30509 6.30405 5.89265 6.84874 5.89265ZM16.0789 8.50306C15.8654 8.50193 15.6608 8.58668 15.5094 8.73698C15.358 8.88728 15.2732 9.09183 15.2721 9.30538V10.6456H12.6797C12.2379 10.6479 11.8808 11.005 11.8785 11.4457V12.4537H9.28621C8.84437 12.456 8.48726 12.8142 8.48614 13.256V17.5503C8.48727 17.991 8.8455 18.3481 9.28621 18.3504H19.4725C19.9132 18.3481 20.2715 17.991 20.2726 17.5503V9.30544C20.2715 8.8636 19.9144 8.50537 19.4725 8.50311L16.0789 8.50306ZM16.879 10.1123H18.6656V16.7434H16.879V10.1123ZM13.4865 12.2526H15.272V16.7433H13.4865V12.2526ZM10.0931 14.0561H11.8797V16.7434H10.0931V14.0561ZM10.2061 20.2071C9.99247 20.206 9.78794 20.2907 9.63649 20.441C9.48506 20.5913 9.39918 20.7959 9.39918 21.0094C9.40031 21.2219 9.48507 21.4264 9.63649 21.5767C9.78792 21.727 9.99247 21.8106 10.2061 21.8095H19.2228C19.6646 21.8084 20.0217 21.4501 20.0228 21.0094C20.0228 20.5676 19.6646 20.2094 19.2228 20.2071L10.2061 20.2071ZM10.2061 24.1771C9.99247 24.176 9.78794 24.2596 9.63649 24.4099C9.48506 24.5602 9.40031 24.7636 9.39918 24.9772C9.39805 25.1919 9.48281 25.3975 9.63423 25.549C9.78566 25.7004 9.99134 25.7852 10.2061 25.784H19.2228C19.4363 25.7829 19.6397 25.697 19.79 25.5467C19.9403 25.3953 20.024 25.1907 20.0228 24.9772C20.0217 24.5353 19.6646 24.1782 19.2228 24.1771L10.2061 24.1771Z" fill="currentColor"/>
  <path d="M17.624 0C19.0308 0 20.1872 1.15579 20.1875 2.5625V3.42871H18.5801V2.5625C18.5798 2.01805 18.1674 1.60742 17.624 1.60742H2.5625C2.0182 1.60766 1.60765 2.01932 1.60742 2.5625V23.1475C1.60742 23.6909 2.01918 24.1082 2.5625 24.1084L3.42871 24.1074V25.7139H2.5625C1.15579 25.7136 0 24.5533 0 23.1465V2.5625C0.000257067 1.15595 1.15595 0.000257067 2.5625 0H17.624Z" fill="currentColor"/>
</svg>