<svg xmlns="http://www.w3.org/2000/svg" width="45.337" height="43" viewBox="0 0 45.337 43">
  <g id="user_access_icon_locked" data-name="user access icon / locked" transform="translate(-1034 -515)">
    <path id="Path_499" data-name="Path 499" d="M23.947,24.1a13.6,13.6,0,0,0,4.075-.745v-.225a9.813,9.813,0,0,1,.722-3.72,9.957,9.957,0,0,1,2-3.113,9.185,9.185,0,0,1,5.128-2.769c.064-.481.111-.971.128-1.478a12.346,12.346,0,0,0-3.515-8.535,12.12,12.12,0,0,0-17.071,0A12.346,12.346,0,0,0,11.9,12.051a12.348,12.348,0,0,0,3.515,8.535A12.353,12.353,0,0,0,23.947,24.1" transform="translate(1031.475 515)" fill="currentColor"/>
    <path id="Path_500" data-name="Path 500" d="M23.95,49.367a2.324,2.324,0,0,1-.834-1.814V35.792a2.527,2.527,0,0,1,.748-1.8H13.388A13.428,13.428,0,0,0,0,47.379,2.606,2.606,0,0,0,.753,49.3a2.5,2.5,0,0,0,1.84.753H25.277l-.058-.02a3.762,3.762,0,0,1-1.269-.67" transform="translate(1034 507.789)" fill="currentColor"/>
    <path id="Path_501" data-name="Path 501" d="M51.687,31.9a1.034,1.034,0,0,0-.738-.285H49.591V27.156a8.373,8.373,0,0,0-2.28-5.757,7.6,7.6,0,0,0-2.542-1.782,7.836,7.836,0,0,0-6.217,0A7.6,7.6,0,0,0,36.018,21.4a8.354,8.354,0,0,0-1.688,2.63,8.234,8.234,0,0,0-.606,3.127v4.456H32.38a1.032,1.032,0,0,0-.738.285.939.939,0,0,0-.3.708V44.367a.751.751,0,0,0,.27.606,2.287,2.287,0,0,0,.767.388,27.341,27.341,0,0,0,9.278,1.665A25.991,25.991,0,0,0,45,46.806a25.142,25.142,0,0,0,2.929-.533q1.235-.314,1.98-.548a10.977,10.977,0,0,0,1.038-.365,3.669,3.669,0,0,0,.8-.424.68.68,0,0,0,.242-.57V32.605a.942.942,0,0,0-.3-.708m-7.291,9a.729.729,0,0,1-1.019,1.042l-1.712-1.675-1.712,1.675A.73.73,0,0,1,38.931,40.9l1.689-1.653-1.689-1.652a.73.73,0,0,1,1.021-1.043l1.712,1.675,1.712-1.675A.729.729,0,0,1,44.4,37.594l-1.689,1.652Zm1.425-9.287H37.507V27.156a4.529,4.529,0,0,1,1.242-3.229,3.961,3.961,0,0,1,5.816,0,4.529,4.529,0,0,1,1.257,3.229Z" transform="translate(1027.351 510.974)" fill="currentColor"/>
  </g>
</svg>
