<svg data-name="user access icon" xmlns="http://www.w3.org/2000/svg" width="45.337" height="43" viewBox="0 0 45.337 43">
    <path data-name="Path 77" d="M21.423 24.1a13.62 13.62 0 0 0 4.075-.745v-.225a9.819 9.819 0 0 1 .722-3.72 9.966 9.966 0 0 1 2-3.113 9.175 9.175 0 0 1 5.128-2.768c.063-.482.111-.972.128-1.479a12.356 12.356 0 0 0-3.515-8.535 12.122 12.122 0 0 0-17.071 0 12.349 12.349 0 0 0-3.517 8.535 12.35 12.35 0 0 0 3.515 8.536 12.353 12.353 0 0 0 8.535 3.514m2.528 18.055a2.324 2.324 0 0 1-.834-1.814V28.58a2.523 2.523 0 0 1 .748-1.8H13.389A13.428 13.428 0 0 0 0 40.167a2.606 2.606 0 0 0 .753 1.925 2.5 2.5 0 0 0 1.841.753h22.684l-.058-.019a3.779 3.779 0 0 1-1.268-.67m21.085-14.285a1.028 1.028 0 0 0-.737-.284h-1.36V23.13a8.358 8.358 0 0 0-2.279-5.756 7.591 7.591 0 0 0-2.542-1.783 7.834 7.834 0 0 0-6.216 0 7.618 7.618 0 0 0-2.535 1.783A8.356 8.356 0 0 0 27.68 20a8.218 8.218 0 0 0-.606 3.126v1.14h3.784V23.13A4.525 4.525 0 0 1 32.1 19.9a3.962 3.962 0 0 1 5.815 0 4.529 4.529 0 0 1 1.257 3.229v4.457H25.73a1.03 1.03 0 0 0-.738.284.94.94 0 0 0-.3.709v11.762a.75.75 0 0 0 .27.607 2.3 2.3 0 0 0 .767.387A27.321 27.321 0 0 0 35.007 43a25.985 25.985 0 0 0 3.346-.219 24.966 24.966 0 0 0 2.929-.533q1.235-.314 1.98-.548a10.754 10.754 0 0 0 1.038-.366 3.645 3.645 0 0 0 .8-.424.679.679 0 0 0 .241-.57V28.58a.937.937 0 0 0-.3-.709m-6.229 5.179-4.419 4.32a.655.655 0 0 1-.518.21.7.7 0 0 1-.517-.21l-2.154-2.1a.728.728 0 0 1 0-1.022.741.741 0 0 1 1.058 0l1.613 1.576L37.778 32a.742.742 0 0 1 1.034 0 .729.729 0 0 1 0 1.046" fill="currentColor"/>
</svg>
