<svg xmlns="http://www.w3.org/2000/svg" width="30" height="30" viewBox="0 0 30 30" fill="none">
  <path fill-rule="evenodd" clip-rule="evenodd" d="M25.2463 11.3392H14.3906C13.9807 11.3392 13.648 11.6719 13.648 12.0818C13.648 12.4929 13.9807 12.8244 14.3906 12.8244H25.2454C25.6554 12.8244 25.9868 12.4917 25.9868 12.0818C25.988 11.6719 25.6563 11.3392 25.2463 11.3392ZM25.2463 14.2585H14.3906C13.9807 14.2585 13.648 14.5911 13.648 15.001C13.648 15.4109 13.9807 15.7436 14.3906 15.7436H25.2454C25.6554 15.7436 25.9868 15.4109 25.9868 15.001C25.988 14.5911 25.6563 14.2585 25.2463 14.2585ZM25.2463 8.42011H18.6783C18.2684 8.42011 17.9357 8.7528 17.9357 9.16269C17.9357 9.57257 18.2684 9.90526 18.6783 9.90526H25.2476C25.6575 9.90526 25.989 9.57257 25.989 9.16269C25.9878 8.75277 25.6562 8.42011 25.2463 8.42011ZM27.9862 7.10842V17.0554C27.9862 17.2181 27.8483 17.3571 27.6844 17.3571L18.2125 17.3583C18.0486 17.3583 17.8894 17.413 17.7599 17.5128L14.4688 20.0447V18.1009C14.4688 17.691 14.1362 17.3583 13.7263 17.3583H11.9524C11.7896 17.3583 11.6506 17.2205 11.6506 17.0565V7.1084C11.6506 6.94444 11.7885 6.80661 11.9524 6.80661H27.6857C27.8485 6.80661 27.9862 6.94565 27.9862 7.10842ZM17.8586 28.0443V25.3889H1.48625V28.0443C1.48625 28.2998 1.7013 28.5148 1.95675 28.5148H17.388C17.6434 28.5148 17.8586 28.2998 17.8586 28.0443ZM1.48625 1.95565C1.48625 1.70139 1.7013 1.48515 1.95675 1.48515H5.47466L6.19348 3.24952C6.30754 3.52991 6.57961 3.71288 6.8814 3.71288H12.4633C12.7651 3.71288 13.0384 3.52991 13.1513 3.24952L13.8701 1.48515H17.388C17.6434 1.48515 17.8585 1.70139 17.8585 1.95565V5.32149H11.9523C10.9674 5.32149 10.1654 6.12228 10.1654 7.10842V17.0554C10.1654 18.0403 10.9674 18.8423 11.9523 18.8423H12.9836V21.5512C12.9836 21.8352 13.144 22.093 13.3983 22.2177C13.5028 22.2688 13.6145 22.2938 13.7262 22.2938C13.8866 22.2938 14.047 22.2415 14.1789 22.1393L17.8586 19.308V23.9024H1.48628L1.48625 1.95565ZM7.07761 1.48515L7.3794 2.22654H11.9631L12.2649 1.48515H7.07761ZM29.4714 7.10845V17.0554C29.4714 18.0403 28.6694 18.8423 27.6844 18.8423L19.3425 18.8435V28.0443C19.3425 29.1232 18.4657 30 17.3869 30H1.95566C0.876831 30 0 29.122 0 28.0443V1.95566C0 0.876832 0.878018 0 1.95566 0H17.3869C18.4657 0 19.3425 0.878018 19.3425 1.95566V5.32149H27.6844C28.6706 5.32149 29.4714 6.12231 29.4714 7.10845ZM11.5022 26.9524C11.5022 27.3624 11.1695 27.695 10.7596 27.695H8.58302C8.17311 27.695 7.84045 27.3623 7.84045 26.9524C7.84045 26.5426 8.17314 26.2099 8.58302 26.2099H10.7596C11.1696 26.2099 11.5022 26.5413 11.5022 26.9524Z" fill="currentColor"/>
</svg>