<svg xmlns="http://www.w3.org/2000/svg" width="30" height="30" viewBox="0 0 30 30" fill="none">
  <rect x="0.75" y="0.75" width="28.5" height="28.5" rx="1.25" stroke="currentColor" stroke-width="1.5"/>
  <circle cx="15" cy="11.45" r="3.75" stroke="currentColor" stroke-width="1.5"/>
  <path d="M23.1 24.05C23.1 23.2227 22.8905 22.4034 22.4834 21.6391C22.0764 20.8747 21.4797 20.1802 20.7276 19.5952C19.9754 19.0102 19.0825 18.5462 18.0998 18.2296C17.117 17.913 16.0637 17.75 15 17.75C13.9363 17.75 12.883 17.913 11.9003 18.2296C10.9176 18.5462 10.0246 19.0102 9.27246 19.5952C8.5203 20.1802 7.92366 20.8747 7.5166 21.6391C7.10954 22.4034 6.90002 23.2227 6.90002 24.05" stroke="currentColor" stroke-width="1.5" stroke-linecap="round"/>
</svg>