<svg xmlns="http://www.w3.org/2000/svg" width="30" height="30" viewBox="0 0 30 30" fill="none">
  <path d="M2.04544 0C1.47681 0 0.990743 0.25568 0.628564 0.617894C0.266385 0.980107 0 1.47681 0 2.04544V22.1484C0 22.7157 0.25568 23.211 0.617894 23.5759C0.980107 23.9408 1.47681 24.2045 2.04544 24.2045H5.79541V27.9439C5.79541 28.5112 6.0511 29.0066 6.41331 29.3714C6.77552 29.7363 7.27222 30 7.84086 30H27.9544C28.5203 30 29.0064 29.7337 29.3712 29.3714C29.7334 29.0119 29.9984 28.5218 29.9998 27.9546V27.9439V7.84098C29.9998 7.27234 29.7335 6.77564 29.3712 6.41343C29.009 6.04989 28.523 5.79553 27.9544 5.79553H24.2044V2.04556C24.2044 1.47693 23.938 0.980226 23.5758 0.618013C23.2136 0.255799 22.7275 0.000119317 22.1589 0.000119317L2.04544 0ZM2.04544 1.36363H22.1589C22.2721 1.36363 22.4679 1.4382 22.6171 1.58735C22.7662 1.73649 22.8408 1.93224 22.8408 2.04546V5.79543H7.84087C7.27224 5.79543 6.78618 6.05111 6.424 6.41333C6.06182 6.77554 5.79543 7.27224 5.79543 7.84087V22.8408H2.04546C1.92694 22.8408 1.73518 22.7542 1.58735 22.6064C1.43952 22.4586 1.36363 22.2682 1.36363 22.1483V2.04536C1.36363 1.93216 1.4382 1.73641 1.58735 1.58724C1.73649 1.43808 1.93223 1.36363 2.04544 1.36363ZM7.84086 7.15904H27.9544C28.0675 7.15904 28.2633 7.23362 28.4125 7.38276C28.5616 7.53191 28.6362 7.72766 28.6362 7.84087V27.9544C28.6362 28.0729 28.5603 28.266 28.4125 28.4125C28.2647 28.559 28.0702 28.6362 27.9544 28.6362H7.84086C7.72234 28.6362 7.53058 28.5496 7.38275 28.4018C7.23491 28.254 7.15903 28.0636 7.15903 27.9437V7.84079C7.15903 7.7276 7.2336 7.53184 7.38275 7.38268C7.53189 7.23351 7.72764 7.15904 7.84086 7.15904ZM17.0453 12.2726C13.6642 12.2726 10.909 15.0279 10.909 18.409C10.909 20.6875 12.1142 22.7102 13.9878 23.7677C14.145 23.8822 14.3447 23.9235 14.5351 23.8809C14.7242 23.8383 14.888 23.7171 14.9826 23.548C15.0771 23.3775 15.0958 23.1751 15.0319 22.9913C14.9679 22.8076 14.8281 22.6597 14.6483 22.5852C13.2061 21.7715 12.2726 20.2108 12.2726 18.4091C12.2726 15.7657 14.402 13.6364 17.0453 13.6364C19.3917 13.6364 21.3268 15.3196 21.7328 17.5462L19.7619 16.4489C19.433 16.2665 19.0175 16.3863 18.8351 16.7152C18.6526 17.0442 18.7725 17.4596 19.1014 17.6421L22.1696 19.3466C22.328 19.4345 22.5145 19.4558 22.6876 19.4052C22.862 19.356 23.0085 19.2388 23.0964 19.0803L24.8009 16.0121C24.9314 15.7898 24.9248 15.5141 24.7849 15.297C24.6451 15.0813 24.3961 14.9628 24.1404 14.9894C23.914 15.0134 23.713 15.1492 23.6078 15.3516L22.9046 16.6087C22.1323 14.1038 19.7994 12.2726 17.0453 12.2726Z" fill="currentColor"/>
</svg>