<svg width="11" height="12" viewBox="0 0 11 12" fill="none" xmlns="http://www.w3.org/2000/svg">
<rect x="9.27051" y="5.21533" width="0.729492" height="1.56958" rx="0.364746" fill="#16163A"/>
<path fill-rule="evenodd" clip-rule="evenodd" d="M10.7709 5.43744C10.9176 5.58415 11 5.78311 11 5.99057C11 6.19802 10.9176 6.39698 10.7709 6.5437L6.34511 10.9695C6.27294 11.0443 6.18661 11.1039 6.09116 11.1449C5.9957 11.1859 5.89304 11.2074 5.78916 11.2083C5.68528 11.2092 5.58226 11.1895 5.48611 11.1501C5.38996 11.1108 5.30261 11.0527 5.22915 10.9792C5.15569 10.9058 5.0976 10.8184 5.05826 10.7223C5.01892 10.6261 4.99913 10.5231 5.00003 10.4192C5.00093 10.3153 5.02251 10.2127 5.06352 10.1172C5.10452 10.0218 5.16412 9.93544 5.23885 9.86327L9.11154 5.99057L5.23885 2.11787C5.09633 1.97032 5.01747 1.77269 5.01926 1.56756C5.02104 1.36242 5.10332 1.1662 5.24838 1.02114C5.39343 0.876084 5.58966 0.793804 5.79479 0.792022C5.99993 0.790239 6.19755 0.869097 6.34511 1.01161L10.7709 5.43744Z" fill="#16163A"/>
</svg>
