<svg width="12" height="12" viewBox="0 0 12 12" fill="none" xmlns="http://www.w3.org/2000/svg">
<path fill-rule="evenodd" clip-rule="evenodd" d="M11.2709 5.43744C11.4176 5.58415 11.5 5.78311 11.5 5.99057C11.5 6.19802 11.4176 6.39698 11.2709 6.5437L6.84511 10.9695C6.77294 11.0443 6.68661 11.1039 6.59116 11.1449C6.4957 11.1859 6.39304 11.2074 6.28916 11.2083C6.18528 11.2092 6.08226 11.1895 5.98611 11.1501C5.88996 11.1108 5.80261 11.0527 5.72915 10.9792C5.65569 10.9058 5.5976 10.8184 5.55826 10.7223C5.51892 10.6261 5.49913 10.5231 5.50003 10.4192C5.50093 10.3153 5.52251 10.2127 5.56352 10.1172C5.60452 10.0218 5.66412 9.93544 5.73885 9.86327L9.61154 5.99057L5.73885 2.11787C5.59633 1.97032 5.51747 1.77269 5.51926 1.56756C5.52104 1.36242 5.60332 1.1662 5.74838 1.02114C5.89343 0.876084 6.08966 0.793804 6.29479 0.792022C6.49993 0.790239 6.69755 0.869097 6.84511 1.01161L11.2709 5.43744Z" fill="#16163A"/>
<rect x="0.5" y="5.21533" width="10" height="1.56958" rx="0.78479" fill="#16163A"/>
</svg>
